<svg version="1.2" xmlns="http://www.w3.org/2000/svg" viewBox="0 0 128 128" width="96" height="96">
	<style>
		.s0 { fill: #fefcd0;stroke: #000000;stroke-miterlimit:10 } 
		.s1 { fill: #000000 } 
	</style>
	<g id="Layer 1">
		<path id="Shape 1" fill-rule="evenodd" class="s0" d="m128 0v128h-128v-128z"/>
		<path id="pedia" class="s1" aria-label="pedia"  d="m13 114.8h-5.8v-31h5.5l0.2 5.1-0.6-0.2q0.9-2.7 3-4.1 2-1.4 4.8-1.4 3.5 0 5.7 1.7 2.3 1.8 3.4 4.6 1.2 2.9 1.2 6.4 0 3.5-1.2 6.3-1.1 2.9-3.4 4.7-2.3 1.6-5.7 1.6-1.8 0-3.4-0.6-1.6-0.6-2.7-1.8-1.1-1.2-1.6-2.8l0.6-0.4zm5.7-11q2.6 0 4.1-2.1 1.6-2.1 1.6-5.9 0-3.7-1.6-5.8-1.5-2.1-4.1-2.1-1.8 0-3 0.9-1.3 0.9-2 2.6-0.7 1.8-0.7 4.4 0 2.7 0.7 4.4 0.7 1.8 1.9 2.7 1.3 0.9 3.1 0.9zm26.9 4.7q-3.6 0-6.2-1.5-2.7-1.6-4.2-4.4-1.4-2.9-1.4-6.8 0-3.8 1.4-6.6 1.5-2.9 4.1-4.4 2.7-1.6 6.2-1.6 3.5 0 6.1 1.6 2.6 1.5 4 4.4 1.4 2.9 1.4 7v1.3h-17.2q0.2 3.2 1.7 4.8 1.6 1.6 4.2 1.6 2 0 3.2-0.9 1.3-0.9 1.8-2.5l6 0.4q-1 3.5-4 5.6-2.9 2-7.1 2zm-5.8-14.9h11.2q-0.2-3-1.7-4.4-1.5-1.4-3.8-1.4-2.3 0-3.8 1.5-1.5 1.4-1.9 4.3zm30 14.9q-3.1 0-5.4-1.5-2.2-1.6-3.4-4.4-1.2-2.9-1.2-6.8 0-3.8 1.2-6.7 1.2-2.8 3.5-4.3 2.3-1.6 5.3-1.6 2.5 0 4.4 1.1 2 1 3 2.9v-11.5h5.8v32.3h-5.5l-0.2-3.6q-1 1.9-3 3-1.9 1.1-4.5 1.1zm1.8-4.7q1.8 0 3-0.9 1.3-1 1.9-2.7 0.7-1.8 0.7-4.4 0-2.6-0.7-4.3-0.6-1.8-1.9-2.7-1.2-0.9-3-0.9-2.7 0-4.3 2.1-1.5 2.1-1.5 5.8 0 3.7 1.5 5.9 1.6 2.1 4.3 2.1zm23.4 4.2h-5.8v-24.3h5.8zm0.1-27.4h-6v-5.2h6zm12.1 28q-3.8 0-6.1-1.7-2.3-1.7-2.3-4.9 0-3.1 1.9-4.9 2-1.8 5.9-2.5l8.1-1.6q0-2.6-1.2-3.9-1.2-1.3-3.5-1.3-2.1 0-3.3 1-1.2 1-1.6 2.8l-5.9-0.3q0.7-3.8 3.5-5.9 2.8-2.1 7.3-2.1 5.2 0 7.8 2.6 2.7 2.6 2.7 7.5v8.8q0 1 0.3 1.4 0.4 0.3 1.1 0.3h0.7v4.2q-0.2 0.1-0.9 0.2-0.6 0-1.2 0-1.5 0-2.7-0.5-1.1-0.5-1.8-1.7-0.6-1.2-0.6-3.3l0.5 0.4q-0.4 1.6-1.6 2.8-1.2 1.3-3 2-1.8 0.6-4.1 0.6zm1.2-4.2q1.9 0 3.3-0.7 1.4-0.8 2.2-2.1 0.8-1.5 0.8-3.3v-1.4l-6.3 1.3q-1.9 0.4-2.8 1.2-0.8 0.8-0.8 2.1 0 1.4 0.9 2.1 1 0.8 2.7 0.8z"/>
		<path id="STEM" class="s1" aria-label="STEM"  d="m26.5 27.6c-0.6-0.4-4.8-2.6-9.1-2.6-5.3 0-9.9 2.4-9.9 7.3 0 3.3 2.2 6 5.9 7.5l6.3 2.7c2.9 1.2 4.2 2.8 4.2 4.8 0 2.9-1.9 5.8-6.1 5.8-5.6 0.2-8.5-3.6-8.5-9.6h-0.8l-1 7.4c1.3 1 4.8 3.5 9.6 3.5 6.9 0 10.4-4.2 10.4-8.6 0-3-1.5-5.1-5.1-6.7l-6.3-2.6c-2.9-1.3-4.7-2.8-4.7-5.6 0-2.7 2.3-4.6 5.5-4.6 5.1 0 7.7 3.7 7.6 8.6h0.8zm3 7.6h0.9c1.1-6.2 2.5-8.4 5.7-8.4h4.7v24.6c0 1.9-1 1.8-4.8 1.9v0.7h13.6v-0.7c-4-0.1-4.7 0-4.7-1.9v-24.6h4.6c3.3 0 4.7 2.2 5.8 8.4h0.9l-1.2-9.6h-24.3zm28.5 18.1v0.8h23.5l1.8-9.1h-0.8c-1 4-2.1 7.8-6.9 7.8h-9.3v-12.5h8.1c1.8 0 3.2 1.3 3.3 4.6h0.8v-10.5h-0.8c-0.1 3.4-1.5 4.6-3.3 4.6h-8.1v-12.1h8.4c3.3 0 5.7 1.5 6.7 7.9h0.9l-1.3-9.1h-23v0.7c3 0.1 4.1-0.1 4.1 1.7v23.5c0 1.8-1.1 1.6-4.1 1.7zm28-26.9c2.7 0.1 4.1-0.2 4.1 1.8v23.3c0 1.9-1.9 1.7-4.1 1.8v0.8h9.8v-0.8c-2.3-0.1-4 0.1-4-1.8v-20.3l-0.2-2.4 11.2 25.3h1.1l10-25.3-0.1 2.4v20.3c0 2-2 1.7-4.3 1.8v0.8h12.4v-0.8c-2.3-0.1-4.1 0.2-4.1-1.8v-23.3c0-2 1.4-1.7 4.1-1.8v-0.7h-8.3l-9.2 22.8-10-22.8h-8.4z"/>
	</g>
</svg>