<svg version="1.2" xmlns="http://www.w3.org/2000/svg" viewBox="0 0 128 128" width="128" height="128">
	<style>
		path { fill: #000; }
        @media (prefers-color-scheme: dark) {
            path { fill: #FFF; }
        }    
	</style>
	<g id="Layer 1">
		<path id="pedia" class="s0" aria-label="pedia"  d="m9 128.2h-5.3v-51h5l0.2 8.5-0.7-0.4q1-4.4 3.3-6.6 2.3-2.4 5.4-2.4 3.8 0 6.3 3 2.5 2.8 3.8 7.5 1.2 4.7 1.2 10.3 0 5.6-1.2 10.3-1.3 4.8-3.8 7.7-2.5 2.8-6.4 2.8-2 0-3.7-1-1.8-1.1-3-3-1.2-1.9-1.7-4.5l0.6-0.9zm6.9-17.2q3.2 0 5-3.6 1.8-3.7 1.8-10.3 0-6.5-1.8-10.1-1.8-3.8-5-3.8-2.1 0-3.7 1.6-1.5 1.5-2.3 4.6-0.9 3.1-0.9 7.7 0 4.6 0.8 7.7 0.9 3.1 2.4 4.7 1.6 1.5 3.7 1.5zm28.7 6.9q-3.8 0-6.7-2.5-2.8-2.6-4.3-7.3-1.5-4.7-1.5-11 0-6.3 1.5-10.9 1.5-4.7 4.3-7.2 2.8-2.6 6.6-2.6 3.6 0 6.3 2.5 2.8 2.4 4.3 7.2 1.5 4.6 1.5 11.3v2h-19q0.2 5.8 2 8.8 1.9 2.9 5.1 2.9 2.3 0 3.8-1.6 1.6-1.7 2.2-4.5l5.5 0.6q-1 5.5-4.1 8.9-3.1 3.4-7.5 3.4zm-7-24.5h13.4q-0.2-5.3-2-7.7-1.8-2.6-4.5-2.6-2.8 0-4.7 2.7-1.8 2.6-2.2 7.6zm33.6 24.5q-3.5 0-6-2.5-2.4-2.6-3.8-7.2-1.3-4.7-1.3-11.1 0-6.3 1.3-11 1.4-4.7 3.8-7.1 2.6-2.6 6-2.6 2.7 0 4.8 1.7 2.2 1.7 3.3 4.7v-18.9h5.2v53.1h-4.9l-0.1-5.9q-1.1 3.2-3.4 5-2.1 1.8-4.9 1.8zm1.3-6.9q2.2 0 3.7-1.6 1.5-1.7 2.3-4.8 0.8-3.1 0.8-7.5 0-4.4-0.8-7.5-0.8-3.1-2.3-4.7-1.5-1.7-3.7-1.7-3.2 0-5.1 3.8-1.8 3.6-1.8 10.1 0 6.4 1.8 10.2 2 3.7 5.1 3.7zm24.5 6h-5.3v-39.8h5.3zm0.1-45.5h-5.5v-7.9h5.5zm14 46.5q-4.1 0-6.6-2.9-2.4-2.9-2.4-8 0-5.1 2-8 2.1-2.9 6.5-4.2l9.1-2.6q0-4.6-1.5-6.9-1.4-2.3-4.2-2.3-2.6 0-4 1.8-1.5 1.6-2 4.9l-5.5-0.6q0.8-5.9 3.7-9.3 3-3.5 7.8-3.5 5.3 0 8.1 4.3 2.8 4.3 2.8 12.1v15.4q0 1.5 0.4 2.1 0.3 0.5 1.1 0.5h0.9v6.3q-0.2 0.1-0.8 0.2-0.5 0-1.1 0-1.8 0-3-0.8-1.2-0.9-1.8-2.7-0.6-2-0.6-5.2l0.6 0.4q-0.4 2.6-1.8 4.6-1.3 2.1-3.3 3.2-2 1.2-4.4 1.2zm0.9-6.3q2.4 0 4.1-1.4 1.7-1.4 2.6-3.8 1-2.5 1-5.6v-2.6l-7.8 2.3q-2.4 0.6-3.4 2.1-0.9 1.4-0.9 3.7 0 2.5 1.1 3.9 1.2 1.4 3.3 1.4z"/>
		<path id="STEM" class="s0" aria-label="STEM"  d="m21.3 13.4q0.7 5.3 0.9 9.9-0.4 0.4-1.7 0.5-0.2-1.2-0.5-2.2-0.2-1-0.6-2-0.3-1.1-0.7-1.9-0.4-0.7-1-1.5-0.6-0.8-1.3-1.2-0.6-0.5-1.6-0.8-0.8-0.3-1.9-0.3-2.2 0-3.9 2.7-1.7 2.6-1.7 5.9 0 1.8 0.5 3.4 0.6 1.6 1.4 2.7 0.7 1.1 1.9 2.1 1.2 1.1 2.1 1.6 0.8 0.5 2 1.2 1.3 0.7 1.6 0.9 1.5 1 2.6 2.1 1.2 1.1 2.2 2.7 1.1 1.6 1.7 3.8 0.5 2.2 0.5 4.8 0 3.7-1.3 7-1.3 3.4-3.5 5.4-2.7 2.6-6.4 2.6-2.4 0-5.1-0.9-2.6-0.9-4.1-0.9-0.8-4.9-1-11.7 0.8-0.7 1.7-0.2 1.6 10.9 9 10.9 3.1 0 4.7-2.4 1.7-2.4 1.7-7.1 0-2.1-0.5-3.8-0.4-1.8-1-2.8-0.5-1.1-1.6-2.1-1-1-1.7-1.5-0.7-0.4-2-1.1-1.2-0.8-1.7-1.1-2.2-1.5-3.7-3-1.5-1.7-2.6-4.4-1.1-2.7-1.1-6.1 0-5.9 2.9-9.6 2.9-3.7 6.9-3.7 2.9 0 5 0.9 2.2 1 2.9 1.2zm22.7 9.8v29.4q0 4.6 0.8 5.7 0.9 1.1 4.2 1.3 0.2 0.4 0.2 1.3 0 0.9-0.2 1.3-5.2-0.2-7.2-0.2-2.1 0-7.2 0.2-0.2-0.4-0.2-1.3 0-0.9 0.2-1.3 3.3-0.1 4.1-1.3 0.9-1.1 0.9-5.7v-29.7q0-3.7-0.5-5.6-0.6-2-1.9-2h-2.5q-2.7 0-4.4 1.8-1.7 1.9-2.4 6.4-1.1 0-1.7-0.4 1-6.6 1.2-11.2 0-0.2 0.3-0.2 5.1 0.6 11.9 0.6h4.4q6.9 0 11.6-0.6 0.1 0 0.1 0.2 0.1 5.1 0.7 11-0.6 0.3-1.8 0.3-0.6-4.3-2.4-6.1-1.7-1.8-4.7-1.8h-1.2q-1.3 0-1.8 2-0.5 1.9-0.5 5.9zm23.4 11h4.6q3.2 0 3.9-0.9 0.7-1 0.8-4.4 0.2-0.4 0.8-0.4 0.6 0 0.9 0.4-0.1 4.6-0.1 6.7 0 1.4 0.1 6.8-0.3 0.3-0.9 0.3-0.6 0-0.8-0.3-0.1-2.1-0.3-3-0.2-0.9-1.2-1.6-1.1-0.7-3.2-0.7h-4.6v18.6q0 3.3 1.8 3.3h7q4.9 0 6.7-10.1 0.9-0.3 1.8 0.4-0.6 6.1-1.9 12.9-4.1-0.2-6.6-0.2h-11q-4.2 0.1-6.7 0.2-0.2-0.4-0.2-1.3 0-0.9 0.2-1.3 2.9-0.1 3.7-1.3 0.8-1.1 0.8-5.7v-30.9q0-4.6-0.8-5.7-0.8-1.2-3.7-1.3-0.2-0.3-0.2-1.2 0-1 0.2-1.4l6.7 0.2h13q1.4 0 2.6-0.3 0.2 0 0.2 0.2 0.4 2.6 1.1 11.2-0.8 0.6-1.7 0.4-1-4.7-2.1-6.5-1-1.9-3.7-1.9h-5.4q-0.9 0-1.4 1-0.4 0.9-0.4 2.4zm52.6 18.8l-1.3-32.2h-0.1l-11.5 40.8q-0.3 0.9-0.8 0.8-0.5 0-0.7-0.8l-10.7-40h-0.1l-1.9 30.9q-0.2 3.6 0.4 5.2 0.6 1.6 3 1.9 0.2 0.4 0.2 1.3 0 0.9-0.2 1.2-3.1-0.1-4.9-0.1-1.3 0-4.4 0.1-0.2-0.3-0.2-1.2 0-0.9 0.2-1.3 2.1-0.3 2.9-1.8 0.7-1.5 1-5.2l2-31.7q0.3-4.3-0.2-5.1-0.5-0.9-3.3-1.1-0.2-0.3-0.2-1.3 0-0.9 0.2-1.3l7.5 0.2 10.5 39.1q0.3 1 0.4 1 0.2 0 0.5-1.1l10.9-39 6.7-0.2q0.3 0.4 0.3 1.3 0 0.9-0.3 1.3-2.5 0.2-3.1 1.2-0.6 1-0.4 4.3l1.5 32.4q0.1 1.9 0.2 2.8 0 0.9 0.2 1.8 0.2 0.9 0.4 1.3 0.2 0.3 0.7 0.6 0.5 0.3 1 0.3 0.5 0.1 1.5 0.2 0.2 0.4 0.2 1.3 0 0.9-0.2 1.2-3.4-0.1-5.6-0.1-0.7 0-5.5 0.1-0.3-0.3-0.3-1.2 0-0.9 0.3-1.3 1-0.1 1.4-0.1 0.4-0.1 0.9-0.4 0.5-0.2 0.7-0.5 0.1-0.3 0.2-1.1 0.2-0.9 0.1-1.8 0-0.9-0.1-2.7z"/>
	</g>
</svg>